<?xml version="1.0" encoding="UTF-8" standalone="no"?>
<svg
   viewBox="0 0 180 180"
   version="1.1"
   id="svg4"
   sodipodi:docname="anchor.svg"
   width="180"
   height="180"
   inkscape:version="1.1.2 (0a00cf5339, 2022-02-04)"
   xmlns:inkscape="http://www.inkscape.org/namespaces/inkscape"
   xmlns:sodipodi="http://sodipodi.sourceforge.net/DTD/sodipodi-0.dtd"
   xmlns="http://www.w3.org/2000/svg"
   xmlns:svg="http://www.w3.org/2000/svg">
  <defs
     id="defs8" />
  <sodipodi:namedview
     id="namedview6"
     pagecolor="#ffffff"
     bordercolor="#cccccc"
     borderopacity="1"
     inkscape:pageshadow="0"
     inkscape:pageopacity="1"
     inkscape:pagecheckerboard="0"
     showgrid="false"
     inkscape:zoom="2.5111111"
     inkscape:cx="251.4823"
     inkscape:cy="89.800885"
     inkscape:window-width="1600"
     inkscape:window-height="831"
     inkscape:window-x="0"
     inkscape:window-y="32"
     inkscape:window-maximized="1"
     inkscape:current-layer="svg4" />
  <path
     d="M 3.0385243,124.36295 H 13.244749 c 6.870628,36.13268 43.031297,56.2732 76.44586,56.2732 33.469081,0 69.583101,-20.18097 76.445861,-56.2732 h 10.20622 c 3.36837,0 5.05523,-4.54617 2.67334,-7.20472 L 157.89752,93.583622 c -1.4764,-1.648101 -3.87027,-1.648101 -5.34698,0 l -21.11851,23.574608 c -2.3819,2.6589 -0.69503,7.20472 2.67332,7.20472 h 11.07329 c -6.39266,19.1037 -26.76888,30.45367 -45.406261,33.0658 V 90.599032 h 16.383401 c 2.08794,0 3.78078,-1.889725 3.78078,-4.220491 V 72.310242 c 0,-2.330765 -1.69284,-4.220491 -3.78078,-4.220491 H 99.772379 V 66.165912 C 111.51833,61.53111 119.93499,49.028962 119.93656,34.330049 119.93782,15.956846 106.57969,0.82146601 90.122248,0.56542201 73.219942,0.30199386 59.444343,15.51827 59.444343,34.325828 c 0,14.700672 8.417283,27.204579 20.164177,31.840084 v 1.923839 H 63.225125 c -2.087936,0 -3.780782,1.889726 -3.780782,4.220491 v 14.068299 c 0,2.330766 1.692846,4.220491 3.780782,4.220491 H 79.60852 V 157.42875 C 61.039832,154.82646 40.597141,143.47334 34.202261,124.36295 h 11.073281 c 3.368363,0 5.055223,-4.54617 2.673329,-7.20472 L 26.830365,93.583622 c -1.476398,-1.648101 -3.870264,-1.648101 -5.346974,0 L 0.36488034,117.15823 c -2.38157754,2.65855 -0.69471881,7.20472 2.67364396,7.20472 z M 89.690609,23.071187 c 5.559326,0 10.082092,5.048763 10.082092,11.254641 0,6.20588 -4.522766,11.254642 -10.082092,11.254642 -5.559328,0 -10.082089,-5.048762 -10.082089,-11.254642 0,-6.205878 4.522761,-11.254641 10.082089,-11.254641 z"
     id="path2"
     style="stroke-width:0.332883" />
  <path
     id="path829"
     style="fill:#0000ff;stroke-width:0.332883"
     d="M 88.806641,6.5820312 C 81.293367,6.8397123 74.344344,11.38041 70.339055,17.62423 c -6.884928,10.361675 -6.474441,25.019622 1.079175,34.923377 2.967117,3.962674 7.141039,6.985933 11.816145,8.600831 1.885562,0.914386 2.609619,3.18872 2.375,5.157031 0,2.593489 0,5.186979 0,7.780469 -6.723951,0.02081 -13.447982,-0.0186 -20.171875,0.01953 0.02998,3.501105 -0.02289,7.002824 0.02148,10.503906 6.71677,-0.02258 13.433597,-0.0061 20.150391,-0.0098 0,26.595051 0,53.190101 0,79.785161 -7.44815,-1.0031 -14.960756,-2.13931 -22.001828,-4.87853 -11.275693,-4.16882 -21.722016,-11.1981 -28.816531,-21.01405 -3.032214,-4.2103 -5.280012,-8.94998 -6.873047,-13.875 -1.00083,-1.96423 -0.374579,-4.71261 1.664529,-5.73628 1.605508,-0.86245 3.480493,-0.39571 5.214767,-0.51492 2.059766,6e-5 4.119538,0.007 6.179297,-7.6e-4 -5.609374,-6.2552 -11.21875,-12.51041 -16.828124,-18.765621 -5.597053,6.251461 -11.209114,12.489551 -16.7851568,18.759771 3.6035158,0.001 7.2070308,0.004 10.8105468,0.004 0.564984,2.92804 1.13914,6.06505 1.869141,8.82617 0.525743,1.98531 1.166071,3.93944 1.894531,5.85938 0.206736,0.54389 0.548749,1.38915 0.831545,2.03673 2.124267,4.9059 4.988555,9.47968 8.387205,13.60194 0.498993,0.60202 1.195789,1.42242 1.802702,2.08381 9.099362,10.0598 21.352318,16.94469 34.316202,20.67425 12.681462,3.65776 26.262709,4.19863 39.171216,1.40483 13.85815,-2.92899 27.12472,-9.40061 37.32228,-19.32088 7.11059,-6.90849 12.52689,-15.60787 15.24902,-25.16211 0.69439,-2.31165 1.13243,-4.69055 1.62698,-7.04634 0.62738,-2.04767 2.89101,-3.23604 4.95379,-2.95756 2.14752,9.7e-4 4.29505,0.008 6.44258,0.004 -5.60743,-6.25586 -11.21485,-12.51172 -16.82227,-18.767581 -5.60048,6.251321 -11.20977,12.494751 -16.79492,18.759771 5.04101,0.001 10.08203,0.004 15.12305,0.004 -2.11211,6.27495 -3.96483,12.77419 -7.72398,18.31168 -6.20983,9.5606 -15.68052,16.65756 -26.03068,21.21964 -6.79929,3.02463 -14.08693,4.85828 -21.444564,5.84563 -2.276772,0.12488 -4.582887,-1.69538 -4.601562,-4.05273 0.05858,-7.33463 0.0091,-14.67701 0.02539,-22.01484 0,-17.69102 0,-35.38204 0,-53.073051 6.723956,-0.006 13.447986,0.02192 20.171876,-0.01367 -0.0376,-3.501701 0.0362,-7.004206 -0.0215,-10.50586 -6.71676,0.02747 -13.4336,0.0057 -20.150396,0.0098 0,-3.992839 0,-7.985677 0,-11.978516 4.08233,-1.495079 8.216786,-3.264401 11.340176,-6.38799 6.69832,-6.330849 9.70601,-16.008422 8.6149,-25.072947 -0.0458,-0.325803 -0.13694,-1.070988 -0.22471,-1.553502 C 112.17593,21.165455 107.57147,13.63036 100.54822,9.5349842 97.011569,7.4806455 92.900357,6.4041711 88.806641,6.5820312 Z m 0.886718,10.4882808 c 6.38393,-0.06832 12.325801,4.335109 14.671511,10.180561 3.021,7.019942 1.07432,15.970943 -4.932234,20.807602 -4.724612,3.98855 -11.97277,4.689419 -17.303098,1.497993 -5.852662,-3.326027 -9.150649,-10.332478 -8.448893,-16.966725 0.553834,-6.247584 4.604894,-12.257234 10.564329,-14.496138 1.7332,-0.671729 3.590794,-1.009368 5.448385,-1.023293 z" />
</svg>
