<?xml version="1.0" encoding="UTF-8" standalone="no"?>
<!-- Created with Inkscape (http://www.inkscape.org/) -->

<svg
   width="1080"
   height="1080"
   viewBox="0 0 1080 1080"
   version="1.1"
   id="svg5"
   inkscape:version="1.1.2 (0a00cf5339, 2022-02-04)"
   sodipodi:docname="Wheel2.svg"
   xmlns:inkscape="http://www.inkscape.org/namespaces/inkscape"
   xmlns:sodipodi="http://sodipodi.sourceforge.net/DTD/sodipodi-0.dtd"
   xmlns="http://www.w3.org/2000/svg"
   xmlns:svg="http://www.w3.org/2000/svg">
  <sodipodi:namedview
     id="namedview7"
     pagecolor="#ffffff"
     bordercolor="#cccccc"
     borderopacity="1"
     inkscape:pageshadow="0"
     inkscape:pageopacity="1"
     inkscape:pagecheckerboard="0"
     inkscape:document-units="px"
     showgrid="false"
     inkscape:zoom="0.40555556"
     inkscape:cx="388.35616"
     inkscape:cy="637.39725"
     inkscape:window-width="1600"
     inkscape:window-height="831"
     inkscape:window-x="0"
     inkscape:window-y="32"
     inkscape:window-maximized="1"
     inkscape:current-layer="layer1" />
  <defs
     id="defs2">
    <inkscape:path-effect
       effect="copy_rotate"
       starting_point="0,0"
       origin="37.281322,511.32262"
       id="path-effect2103"
       is_visible="true"
       lpeversion="1"
       method="normal"
       num_copies="8"
       starting_angle="0"
       rotation_angle="45"
       gap="-0.01"
       copies_to_360="true"
       mirror_copies="false"
       split_items="false" />
    <inkscape:path-effect
       effect="powerstroke"
       id="path-effect861"
       is_visible="true"
       lpeversion="1"
       offset_points="0,1"
       not_jump="false"
       sort_points="true"
       interpolator_type="CubicBezierJohan"
       interpolator_beta="0.2"
       start_linecap_type="zerowidth"
       linejoin_type="extrp_arc"
       miter_limit="4"
       scale_width="1"
       end_linecap_type="zerowidth" />
    <inkscape:path-effect
       effect="bspline"
       id="path-effect859"
       is_visible="true"
       lpeversion="1"
       weight="33.333333"
       steps="2"
       helper_size="0"
       apply_no_weight="true"
       apply_with_weight="true"
       only_selected="false" />
  </defs>
  <g
     inkscape:label="Layer 1"
     inkscape:groupmode="layer"
     id="layer1">
    <g
       id="g2529"
       style="display:inline"
       inkscape:label="whl"
       transform="matrix(0.53080476,0,0,0.53080476,253.36542,253.36542)">
      <path
         id="path2101"
         style="opacity:1;fill:#280b0b;stroke-width:32.8709"
         d="m 536.0918,31.339844 c -67.82337,0.321997 -27.98311,82.237566 -19.57422,108.749996 v 51.58985 A 350,350 0 0 1 540,190 a 350,350 0 0 1 15.38672,0.37891 V 140.08984 C 568.77195,112.5353 619.10747,30.945706 536.0918,31.339844 Z m 19.29492,159.039066 v 261.70898 c 3.00264,4.51805 5.79815,10.67539 8.29883,17.31055 7.98651,-3.64389 15.99043,-6.62714 21.87304,-8.16602 L 770.25391,276.53516 A 350,350 0 0 0 555.38672,190.37891 Z m 214.86719,86.15625 a 350,350 0 0 1 27.8457,27.125 l 35.56055,-35.5586 c 28.94879,-10.01922 122.23354,-32.12072 63.2539,-90.54297 -48.18605,-47.73068 -77.93909,38.36354 -90.74023,63.05664 z m 27.8457,27.125 -185.05664,185.05664 c -1.07156,5.31793 -3.44757,11.64936 -6.37109,18.10937 8.22371,3.07066 15.99256,6.61999 21.24023,9.69141 H 889.11328 A 350,350 0 0 0 798.09961,303.66016 Z m 91.01367,212.85742 A 350,350 0 0 1 890,540 a 350,350 0 0 1 -1.09961,15.38672 h 51.00977 c 27.55454,13.38523 109.14414,63.72075 108.75004,-19.29492 -0.322,-67.82337 -82.23761,-27.98311 -108.75004,-19.57422 z m -0.21289,38.86914 H 627.91211 c -4.51805,3.00264 -10.67539,5.79815 -17.31055,8.29883 3.64389,7.98651 6.62714,15.99043 8.16602,21.87304 l 184.69336,184.69336 a 350,350 0 0 0 85.43945,-214.86523 z m -85.43945,214.86523 a 350,350 0 0 1 -27.48438,27.48438 l 35.92188,35.92383 c 10.01922,28.94879 32.12072,122.23354 90.54297,63.2539 47.73068,-48.18605 -38.36354,-77.93909 -63.05664,-90.74023 z M 775.97656,797.73633 591.2832,613.04297 c -5.31793,-1.07156 -11.64936,-3.44757 -18.10937,-6.37109 -3.07066,8.22371 -6.61999,15.99256 -9.69141,21.24023 v 260.4082 A 350,350 0 0 0 775.97656,797.73633 Z M 563.48242,888.32031 A 350,350 0 0 1 540,890 350,350 0 0 1 524.61328,888.90039 v 51.00977 c -13.38523,27.55454 -63.72075,109.14414 19.29492,108.75004 67.82337,-0.322 27.98311,-82.23761 19.57422,-108.75004 z m -38.86914,0.58008 V 627.91211 c -3.00264,-4.51805 -5.79815,-10.67539 -8.29883,-17.31055 -7.98651,3.64389 -15.99043,6.62714 -21.87304,8.16602 L 309.74805,803.46094 a 350,350 0 0 0 214.86523,85.43945 z M 309.74805,803.46094 a 350,350 0 0 1 -27.48438,-27.48438 l -35.92383,35.92188 c -28.94879,10.01922 -122.23354,32.12072 -63.2539,90.54297 48.18605,47.73068 77.93909,-38.36354 90.74023,-63.05664 z M 282.26367,775.97656 466.95703,591.2832 c 1.07156,-5.31793 3.44757,-11.64936 6.37109,-18.10937 -8.22371,-3.07066 -15.99256,-6.61999 -21.24023,-9.69141 h -260.4082 a 350,350 0 0 0 90.58398,212.49414 z M 191.67969,563.48242 A 350,350 0 0 1 190,540 350,350 0 0 1 191.09961,524.61328 H 140.08984 C 112.5353,511.22805 30.945706,460.89253 31.339844,543.9082 c 0.321997,67.82337 82.237566,27.98311 108.749996,19.57422 z m -0.58008,-38.86914 h 260.98828 c 4.51805,-3.00264 10.67539,-5.79815 17.31055,-8.29883 -3.64389,-7.98651 -6.62714,-15.99043 -8.16602,-21.87304 L 276.53906,309.74805 a 350,350 0 0 0 -85.43945,214.86523 z m 85.43945,-214.86523 a 350,350 0 0 1 27.48438,-27.48438 l -35.92188,-35.92383 c -10.01922,-28.94879 -32.12072,-122.23354 -90.54297,-63.2539 -47.73068,48.18605 38.36354,77.93909 63.05664,90.74023 z m 27.48438,-27.48438 184.69336,184.69336 c 5.31793,1.07156 11.64936,3.44757 18.10937,6.37109 3.07066,-8.22371 6.61999,-15.99256 9.69141,-21.24023 v -260.4082 a 350,350 0 0 0 -212.49414,90.58398 z m 235.95312,257.66602 c -0.0144,0.0143 -0.0285,0.0228 -0.043,0.0371 -8e-5,0.0203 -0.004,0.0364 -0.004,0.0566 0.0143,0.0144 0.0228,0.0285 0.0371,0.043 0.0203,8e-5 0.0364,0.004 0.0566,0.004 0.0144,-0.0143 0.0285,-0.0228 0.043,-0.0371 8e-5,-0.0203 0.004,-0.0364 0.004,-0.0566 -0.0143,-0.0144 -0.0228,-0.0285 -0.0371,-0.043 -0.0203,-8e-5 -0.0364,-0.004 -0.0566,-0.004 z" />
      <path
         id="path2312"
         style="opacity:1;fill:none;stroke:#000000;stroke-width:52.5;stroke-miterlimit:4;stroke-dasharray:none;stroke-opacity:1"
         d="m 532.93677,332.22125 c -4.27605,0.19829 -8.54996,0.42788 -12.8107,0.85029 -4.57003,0.44435 -9.12728,1.02814 -13.65836,1.77459 -3.51832,0.56601 -7.02308,1.23472 -10.50454,1.99487 -4.43419,0.9555 -8.83344,2.06886 -13.19594,3.30908 -4.44758,1.28077 -8.85182,2.70652 -13.211,4.26043 -3.83557,1.39673 -7.63434,2.88646 -11.38844,4.48964 -4.23681,1.82004 -8.41485,3.77588 -12.52479,5.86748 -3.98004,2.02948 -7.90012,4.17952 -11.73645,6.47018 -3.08598,1.80864 -6.10515,3.7343 -9.08751,5.70825 -3.83736,2.55771 -7.59183,5.23835 -11.25546,8.03863 -3.24882,2.49788 -6.42194,5.08873 -9.5313,7.75804 -3.50935,3.04521 -6.91734,6.2054 -10.2292,9.46465 -3.22172,3.19863 -6.34876,6.49334 -9.35816,9.89322 -2.32729,2.62228 -4.59167,5.30488 -6.77695,8.0467 -2.85798,3.5681 -5.59528,7.23228 -8.21061,10.98133 -2.5969,3.72904 -5.06208,7.54689 -7.42878,11.42541 -2.13784,3.58354 -4.19408,7.21296 -6.13806,10.90549 -2.09758,4.02272 -4.08028,8.10561 -5.91602,12.25501 -1.80334,4.06995 -3.49198,8.1927 -5.01528,12.37626 -1.28237,3.41374 -2.4288,6.87974 -3.51941,10.35883 -1.35919,4.38659 -2.56665,8.81876 -3.64406,13.28239 -0.94695,4.00707 -1.78109,8.03761 -2.51142,12.08972 -0.78952,4.5445 -1.44175,9.11196 -1.94673,13.69721 -0.50976,4.66095 -0.84687,9.33984 -1.04485,14.02454 -0.18863,4.56549 -0.22286,9.13778 -0.10322,13.706 0.0815,3.51769 0.26764,7.03574 0.53238,10.54426 0.35071,4.61387 0.85969,9.21516 1.5127,13.7955 0.66179,4.56739 1.46961,9.1125 2.42076,13.62813 0.8661,4.02104 1.84167,8.01543 2.92151,11.9844 1.23453,4.45562 2.61449,8.87009 4.12932,13.2387 1.48628,4.25642 3.10405,8.46761 4.87153,12.61574 1.37847,3.28249 2.85791,6.52548 4.41413,9.72733 1.97806,4.08479 4.10036,8.09843 6.33696,12.0469 2.06561,3.62423 4.25056,7.1759 6.50728,10.6839 2.49708,3.79052 5.08833,7.51824 7.80827,11.15287 2.73906,3.64136 5.58566,7.20237 8.55652,10.65798 2.95018,3.45174 6.02212,6.80049 9.20347,10.04084 2.49548,2.58713 5.10015,5.07013 7.7335,7.51573 3.37896,3.11051 6.86143,6.10693 10.43078,8.99617 3.21228,2.57506 6.49293,5.05995 9.83877,7.45884 3.74928,2.65171 7.57396,5.19617 11.4817,7.60924 3.92682,2.42131 7.93613,4.70879 12.01544,6.864 3.04908,1.61591 6.14425,3.15134 9.27269,4.60751 4.163,1.93886 8.38885,3.7423 12.6682,5.40741 4.28401,1.65611 8.62275,3.16525 12.9999,4.55479 3.94696,1.2191 7.92119,2.34081 11.92814,3.34581 4.44444,1.0986 8.92229,2.06193 13.42869,2.8724 4.50472,0.81062 9.03686,1.47156 13.58639,1.97662 4.44876,0.51138 8.91697,0.86695 13.39107,1.06288 3.82848,0.2074 7.66637,0.26145 11.49974,0.23404 4.56992,-0.0331 9.1376,-0.22981 13.69525,-0.55773 4.64918,-0.35138 9.28548,-0.85603 13.9027,-1.50026 4.07485,-0.59018 8.13057,-1.29127 12.16789,-2.09907 4.51541,-0.93229 9.0024,-1.99902 13.45119,-3.21165 4.4253,-1.21177 8.80946,-2.57359 13.14531,-4.07528 3.26963,-1.12479 6.5107,-2.34184 9.71617,-3.63779 4.27562,-1.72739 8.49592,-3.59122 12.64887,-5.59483 4.08649,-1.9754 8.10171,-4.09276 12.06051,-6.31178 3.588,-2.05784 7.12994,-4.19142 10.60261,-6.43891 3.80428,-2.47521 7.53621,-5.06243 11.17299,-7.77868 2.81161,-2.09381 5.5742,-4.25908 8.27109,-6.4988 3.55386,-2.93841 7.01112,-5.99356 10.35902,-9.1641 3.27692,-3.09295 6.43407,-6.30845 9.51572,-9.59495 2.82071,-3.0708 5.5697,-6.20416 8.22247,-9.42142 2.89677,-3.54018 5.68861,-7.1664 8.35297,-10.88534 2.61142,-3.64831 5.1148,-7.37575 7.47648,-11.19123 1.93814,-3.07249 3.76203,-6.21903 5.52265,-9.396 2.19707,-3.96997 4.25274,-8.01655 6.19288,-12.11751 1.78273,-3.81232 3.44314,-7.67778 5.02299,-11.57825 1.66364,-4.23838 3.21229,-8.52103 4.61816,-12.8523 1.39696,-4.33437 2.65721,-8.7129 3.76805,-13.12975 0.85114,-3.35082 1.61074,-6.72795 2.28688,-10.11834 0.90306,-4.52328 1.65749,-9.07609 2.2578,-13.649 0.59987,-4.61529 1.05642,-9.24843 1.35514,-13.89266 0.25005,-4.09853 0.3889,-8.20078 0.41975,-12.30679 0.0398,-3.56134 -0.0606,-7.0954 -0.21541,-10.60031 -0.47798,-10.25525 -1.72449,-20.47351 -3.70944,-30.54584 -3.66077,-18.55997 -9.93567,-36.8081 -18.53897,-53.74509 -6.65327,-13.13146 -14.82068,-25.72719 -24.1711,-37.20084 -2.70997,-3.32973 -5.43589,-6.47786 -8.34992,-9.64522 -0.83667,-0.89179 -1.72724,-1.86336 -2.6019,-2.76846 -2.96785,-3.11041 -6.0621,-6.14701 -9.16778,-9.01853 -1.92806,-1.78616 -4.10163,-3.72189 -6.10895,-5.42618 -12.47529,-10.66734 -26.22895,-19.8338 -40.86021,-27.27204 -16.86178,-8.57021 -35.09503,-14.89116 -53.72966,-18.57684 -10.33964,-2.04572 -21.03469,-3.34255 -31.64458,-3.77973 -5.19964,-0.25609 -10.57615,-0.1894 -15.85027,-0.0688 z" />
      <path
         id="path2439"
         style="opacity:1;fill:none;stroke:#ffffff;stroke-width:5.775;stroke-miterlimit:4;stroke-dasharray:none;stroke-opacity:1"
         d="m 533.29027,342.60993 c -4.06225,0.18838 -8.12246,0.40649 -12.17016,0.80778 -4.34153,0.42213 -8.67092,0.97673 -12.97545,1.68586 -3.3424,0.53771 -6.67192,1.17298 -9.97931,1.89512 -4.21248,0.90773 -8.39177,1.96542 -12.53614,3.14363 -4.2252,1.21673 -8.40923,2.57119 -12.55045,4.04741 -3.64379,1.32689 -7.25263,2.74213 -10.81902,4.26515 -4.02497,1.72904 -7.99411,3.58709 -11.89855,5.57411 -3.78104,1.92801 -7.50512,3.97054 -11.14963,6.14667 -2.93168,1.71821 -5.79989,3.54759 -8.63313,5.42284 -3.6455,2.42982 -7.21224,4.97643 -10.69269,7.6367 -3.08638,2.37298 -6.10084,4.83429 -9.05474,7.37014 -3.33388,2.89295 -6.57147,5.89513 -9.71774,8.99141 -3.06063,3.0387 -6.03132,6.16868 -8.89025,9.39856 -2.21092,2.49117 -4.36208,5.03964 -6.4381,7.64437 -2.71508,3.38969 -5.31552,6.87066 -7.80008,10.43226 -2.46705,3.54259 -4.80898,7.16955 -7.05734,10.85414 -2.03095,3.40436 -3.98438,6.85231 -5.83116,10.36022 -1.9927,3.82158 -3.87626,7.70033 -5.62022,11.64226 -1.71317,3.86645 -3.31738,7.78306 -4.76451,11.75744 -1.21825,3.24306 -2.30736,6.53576 -3.34344,9.84089 -1.29123,4.16726 -2.43832,8.37782 -3.46186,12.61827 -0.8996,3.80672 -1.69203,7.63573 -2.38585,11.48524 -0.75004,4.31727 -1.36966,8.65636 -1.84939,13.01234 -0.48427,4.42791 -0.80453,8.87285 -0.99261,13.32332 -0.1792,4.33721 -0.21172,8.68089 -0.0981,13.0207 0.0774,3.3418 0.25426,6.68395 0.50576,10.01704 0.33318,4.38318 0.81671,8.75441 1.43707,13.10573 0.6287,4.33902 1.39613,8.65687 2.29972,12.94672 0.8228,3.81999 1.74959,7.61466 2.77543,11.38518 1.17281,4.23284 2.48377,8.42659 3.92286,12.57677 1.41196,4.0436 2.94885,8.04423 4.62795,11.98495 1.30955,3.11837 2.71502,6.19921 4.19343,9.24096 1.87915,3.88056 3.89534,7.69351 6.02011,11.44456 1.96233,3.44302 4.03803,6.8171 6.18191,10.1497 2.37223,3.601 4.83392,7.14233 7.41786,10.59523 2.60211,3.45929 5.30638,6.84225 8.12869,10.12508 2.80268,3.27916 5.72102,6.46047 8.7433,9.5388 2.37071,2.45777 4.84514,4.81662 7.34683,7.13994 3.21001,2.95499 6.51835,5.80159 9.90924,8.54637 3.05166,2.4463 6.16828,4.80695 9.34683,7.08589 3.56181,2.51913 7.19526,4.93636 10.90761,7.22878 3.73048,2.30025 7.53933,4.47335 11.41467,6.5208 2.89663,1.53512 5.83704,2.99377 8.80906,4.37714 3.95485,1.84191 7.9694,3.55518 12.03479,5.13704 4.06981,1.5733 8.19161,3.00698 12.3499,4.32705 3.74961,1.15814 7.52513,2.22377 11.33173,3.17852 4.22222,1.04367 8.47618,1.95883 12.75726,2.72878 4.27948,0.77008 8.58502,1.39798 12.90707,1.87778 4.22632,0.48582 8.47112,0.82361 12.72152,1.00974 3.63705,0.19703 7.28305,0.24838 10.92475,0.22234 4.34142,-0.0315 8.68072,-0.21832 13.01049,-0.52985 4.41672,-0.33381 8.8212,-0.81322 13.20756,-1.42524 3.87111,-0.56067 7.72404,-1.22671 11.5595,-1.99412 4.28964,-0.88567 8.55228,-1.89907 12.77863,-3.05107 4.20403,-1.15118 8.36899,-2.44491 12.48804,-3.87151 3.10615,-1.06855 6.18517,-2.22475 9.23036,-3.4559 4.06184,-1.64102 8.07113,-3.41166 12.01643,-5.31509 3.88217,-1.87663 7.69663,-3.88812 11.45749,-5.99619 3.4086,-1.95495 6.77344,-3.98185 10.07248,-6.11697 3.61406,-2.35145 7.15939,-4.80931 10.61434,-7.38974 2.67103,-1.98912 5.29549,-4.04613 7.85753,-6.17386 3.37617,-2.79149 6.66057,-5.69388 9.84107,-8.7059 3.11307,-2.9383 6.11237,-5.99303 9.03993,-9.1152 2.67968,-2.91726 5.29122,-5.89395 7.81135,-8.95035 2.75193,-3.36317 5.40418,-6.80808 7.93532,-10.34107 2.48085,-3.4659 4.85906,-7.00696 7.10266,-10.63167 1.84123,-2.91887 3.57393,-5.90808 5.24652,-8.9262 2.08721,-3.77147 4.0401,-7.61572 5.88323,-11.51164 1.6936,-3.6217 3.27098,-7.29389 4.77184,-10.99933 1.58046,-4.02646 3.05168,-8.09498 4.38725,-12.20969 1.32712,-4.11765 2.52435,-8.27725 3.57965,-12.47326 0.80858,-3.18328 1.5302,-6.39155 2.17254,-9.61242 0.8579,-4.29712 1.57461,-8.62229 2.14491,-12.96655 0.56987,-4.38453 1.0036,-8.78601 1.28738,-13.19803 0.23755,-3.8936 0.36946,-7.79074 0.39876,-11.69145 0.0378,-3.38327 -0.0576,-6.74063 -0.20464,-10.0703 -0.45408,-9.74248 -1.63826,-19.44983 -3.52396,-29.01854 -3.47774,-17.63197 -9.43889,-34.9677 -17.61203,-51.05784 -6.3206,-12.47489 -14.07964,-24.44083 -22.96254,-35.3408 -2.57447,-3.16324 -5.1641,-6.15396 -7.93242,-9.16296 -0.79484,-0.8472 -1.64088,-1.77019 -2.47181,-2.63003 -2.81946,-2.95489 -5.75899,-5.83966 -8.70939,-8.56761 -1.83166,-1.69685 -3.89655,-3.53579 -5.8035,-5.15487 -11.85153,-10.13397 -24.91751,-18.84211 -38.8172,-25.90844 -16.01869,-8.14169 -33.34028,-14.1466 -51.04318,-17.64799 -9.82266,-1.94344 -19.98296,-3.17543 -30.06235,-3.59075 -4.93966,-0.24328 -10.04734,-0.17993 -15.05776,-0.0654 z" />
      <path
         id="path2495"
         style="opacity:1;fill:none;stroke:#ffffff;stroke-width:19.1537;stroke-miterlimit:4;stroke-dasharray:none;stroke-opacity:1"
         d="m 529.03888,217.66965 c -6.63355,0.30761 -13.26379,0.66378 -19.8736,1.31907 -7.08962,0.68935 -14.15941,1.595 -21.18859,2.75297 -5.45807,0.87808 -10.89513,1.91547 -16.29599,3.09469 -6.87889,1.48232 -13.70356,3.20951 -20.47125,5.1335 -6.89965,1.98688 -13.73208,4.19867 -20.49459,6.60931 -5.95022,2.1668 -11.84335,4.47786 -17.6672,6.96493 -6.57268,2.82345 -13.05419,5.8576 -19.43006,9.10238 -6.17436,3.14839 -12.25568,6.48381 -18.20707,10.03738 -4.7874,2.80579 -9.47112,5.79312 -14.09773,8.85536 -5.95301,3.96783 -11.77742,8.12639 -17.46092,12.47056 -5.03997,3.87503 -9.96254,7.89428 -14.78615,12.03524 -5.44416,4.72413 -10.73109,9.62662 -15.86885,14.6828 -4.99798,4.96214 -9.84901,10.07331 -14.51759,15.34762 -3.6104,4.068 -7.12319,8.22961 -10.51328,12.48305 -4.43366,5.53532 -8.68011,11.21967 -12.73733,17.03566 -4.02866,5.78498 -7.85294,11.70771 -11.5245,17.72457 -3.31649,5.55925 -6.50639,11.18969 -9.52213,16.918 -3.25405,6.24055 -6.32987,12.57446 -9.17769,19.01153 -2.79759,6.31383 -5.41721,12.70957 -7.78037,19.19966 -1.98935,5.29581 -3.76785,10.67271 -5.45975,16.06995 -2.10855,6.80504 -3.9817,13.68078 -5.65314,20.60532 -1.46902,6.21628 -2.76307,12.469 -3.89601,18.75515 -1.22483,7.05 -2.23664,14.13562 -3.02002,21.24888 -0.79082,7.23064 -1.31377,14.48915 -1.62093,21.75663 -0.29261,7.08259 -0.34572,14.1757 -0.16012,21.26252 0.12648,5.4571 0.41521,10.91474 0.8259,16.35759 0.54406,7.15763 1.33367,14.29575 2.34669,21.40136 1.02666,7.08551 2.27985,14.13648 3.75539,21.1417 1.34362,6.23797 2.85703,12.43455 4.53223,18.59174 1.91516,6.91213 4.05594,13.76043 6.40593,20.53759 2.30572,6.6031 4.81539,13.13603 7.55735,19.57113 2.13844,5.09222 4.43356,10.12318 6.84775,15.0903 3.06864,6.33684 6.36103,12.5633 9.8307,18.68868 3.20444,5.62238 6.59402,11.13217 10.09493,16.57422 3.8738,5.88036 7.89369,11.66329 12.11319,17.30176 4.24918,5.64895 8.66519,11.17328 13.27399,16.53404 4.5767,5.35476 9.34227,10.5498 14.27759,15.57666 3.87133,4.01345 7.91202,7.86543 11.9972,11.65935 5.2419,4.82542 10.64434,9.47385 16.18157,13.95602 4.9833,3.99475 10.07267,7.84964 15.26315,11.57109 5.81637,4.11369 11.74971,8.06098 17.8119,11.80445 6.09176,3.75623 12.31152,7.30488 18.63987,10.64831 4.73014,2.50678 9.53176,4.88877 14.38499,7.14775 6.45818,3.00781 13.01386,5.80553 19.65255,8.38866 6.6459,2.56919 13.3767,4.91037 20.16711,7.066 6.12303,1.8912 12.28838,3.63135 18.50446,5.19042 6.89479,1.70428 13.84141,3.19874 20.83231,4.45605 6.98828,1.25753 14.01912,2.28287 21.07695,3.06641 6.90147,0.7933 13.83314,1.3449 20.77391,1.64886 5.93926,0.32174 11.89308,0.40559 17.83988,0.36307 7.08947,-0.0512 14.17543,-0.35652 21.24584,-0.86522 7.21241,-0.5451 14.40483,-1.32798 21.56766,-2.32741 6.32142,-0.91556 12.61318,-2.00316 18.87638,-3.25634 7.0049,-1.4463 13.96569,-3.10113 20.86721,-4.98231 6.8651,-1.87986 13.66635,-3.99249 20.3927,-6.3221 5.07228,-1.74492 10.10022,-3.63296 15.07297,-5.64341 6.63287,-2.67978 13.17995,-5.57117 19.62255,-8.67942 6.33948,-3.0645 12.5684,-6.34923 18.70979,-9.79165 5.56619,-3.19238 11.06088,-6.50229 16.44813,-9.98886 5.90169,-3.83986 11.69115,-7.85349 17.33297,-12.06729 4.36173,-3.24819 8.64742,-6.60721 12.83121,-10.08178 5.51317,-4.55843 10.87653,-9.29798 16.07023,-14.21652 5.08358,-4.79817 9.98135,-9.78646 14.76201,-14.88491 4.37583,-4.76381 8.64042,-9.62468 12.75573,-14.61571 4.49385,-5.49198 8.82491,-11.11744 12.9582,-16.88674 4.05119,-5.65972 7.93474,-11.44224 11.59848,-17.36126 3.0067,-4.76644 5.83613,-9.64777 8.56745,-14.57629 3.40837,-6.15874 6.59737,-12.4363 9.60719,-18.79823 2.76558,-5.91415 5.34143,-11.91076 7.79231,-17.9617 2.58083,-6.5751 4.98329,-13.21888 7.16427,-19.9381 2.16712,-6.72403 4.12222,-13.51659 5.84547,-20.36856 1.32042,-5.19823 2.4988,-10.43726 3.54771,-15.69687 1.40095,-7.01708 2.57133,-14.07999 3.50258,-21.17406 0.93062,-7.15984 1.63886,-14.34737 2.10228,-21.5521 0.38789,-6.35817 0.60329,-12.7221 0.65117,-19.09186 0.0617,-5.52481 -0.0941,-11.00728 -0.33415,-16.44455 -0.74152,-15.90927 -2.67527,-31.76115 -5.75459,-47.38665 -5.67903,-28.79259 -15.41349,-57.10142 -28.76003,-83.37624 -10.32141,-20.37122 -22.99173,-39.91132 -37.49729,-57.71072 -4.20406,-5.16551 -8.43286,-10.04931 -12.9535,-14.96291 -1.29793,-1.38346 -2.6795,-2.8907 -4.03637,-4.29479 -4.60412,-4.82527 -9.40432,-9.53603 -14.22224,-13.99071 -2.99104,-2.77092 -6.36298,-5.77386 -9.47699,-8.41776 -19.35327,-16.54856 -40.68971,-30.76876 -63.3876,-42.3079 -26.15814,-13.29522 -54.44392,-23.10108 -83.35232,-28.81877 -16.04019,-3.17358 -32.63173,-5.18541 -49.09114,-5.86361 -8.06635,-0.39729 -16.4071,-0.29382 -24.58897,-0.10672 z" />
      <path
         id="path2515"
         style="opacity:1;fill:none;stroke:#000000;stroke-width:21.9514;stroke-miterlimit:4;stroke-dasharray:none;stroke-opacity:1"
         d="m 537.05063,452.92485 c -1.78789,0.0829 -3.5749,0.17893 -5.35641,0.35554 -1.91081,0.18578 -3.81628,0.42988 -5.71084,0.74199 -1.47109,0.23664 -2.9365,0.51626 -4.39215,0.83409 -1.85404,0.39951 -3.69346,0.86505 -5.51749,1.3836 -1.85964,0.53551 -3.70114,1.13166 -5.52379,1.78137 -1.60373,0.58399 -3.19208,1.2069 -4.76175,1.87722 -1.77149,0.761 -3.51843,1.57877 -5.23687,2.4533 -1.66413,0.84857 -3.3032,1.74755 -4.90725,2.70531 -1.2903,0.75625 -2.55268,1.5614 -3.79967,2.38675 -1.60447,1.06943 -3.17429,2.19026 -4.70612,3.36111 -1.35841,1.04442 -2.68517,2.12769 -3.98523,3.24378 -1.46734,1.27328 -2.89231,2.59461 -4.27706,3.95738 -1.34706,1.33741 -2.65454,2.71499 -3.91283,4.13654 -0.97307,1.09644 -1.91985,2.21808 -2.83357,3.3645 -1.19499,1.49189 -2.3395,3.02395 -3.43303,4.59151 -1.08582,1.55921 -2.11658,3.15552 -3.10613,4.7772 -0.89386,1.49834 -1.75363,3.01588 -2.56645,4.55981 -0.87704,1.68198 -1.70604,3.38913 -2.4736,5.12406 -0.75402,1.70174 -1.46006,3.42554 -2.09699,5.17476 -0.53617,1.42736 -1.01553,2.87656 -1.47154,4.33126 -0.56831,1.83411 -1.07315,3.68729 -1.52365,5.55363 -0.39593,1.67544 -0.7447,3.36068 -1.05008,5.05496 -0.3301,1.90014 -0.60282,3.80988 -0.81396,5.72708 -0.21313,1.94884 -0.3541,3.90517 -0.43688,5.86395 -0.0788,1.9089 -0.0932,3.82068 -0.0432,5.73073 0.034,1.47084 0.11191,2.94181 0.22257,4.40879 0.14667,1.92915 0.35948,3.85305 0.63251,5.76818 0.27671,1.90972 0.61446,3.81012 1.01216,5.69819 0.36213,1.68129 0.77005,3.35144 1.22154,5.01093 0.5162,1.86298 1.09318,3.70877 1.72657,5.53536 0.62143,1.77971 1.29786,3.54049 2.03688,5.2749 0.57637,1.37251 1.19495,2.72843 1.84564,4.06719 0.82707,1.70795 1.71444,3.38611 2.64963,5.03707 0.86365,1.51537 1.77722,3.00038 2.7208,4.46715 1.04409,1.5849 2.12753,3.14353 3.26479,4.66324 1.14527,1.52252 2.33549,3.01146 3.57766,4.45634 1.23355,1.44322 2.51798,2.84342 3.84816,4.19826 1.04342,1.08173 2.13247,2.11994 3.23354,3.14247 1.41281,1.30058 2.8689,2.55344 4.36133,3.76148 1.34311,1.07669 2.71483,2.11567 4.11377,3.1187 1.56766,1.10875 3.16683,2.17262 4.80075,3.18159 1.64188,1.01241 3.31826,1.96882 5.02389,2.86997 1.27489,0.67565 2.56902,1.31764 3.87711,1.92651 1.74062,0.81066 3.50753,1.56473 5.29683,2.26095 1.79122,0.69242 3.60534,1.32344 5.43552,1.90442 1.6503,0.50975 3.31199,0.97876 4.98739,1.39897 1.85831,0.45934 3.73058,0.86212 5.61482,1.20101 1.8835,0.33892 3.77849,0.6153 5.68074,0.82646 1.8601,0.21381 3.72836,0.36247 5.59906,0.44441 1.60077,0.0867 3.20549,0.10931 4.8083,0.0979 1.91077,-0.0139 3.82061,-0.0961 5.72625,-0.23321 1.94392,-0.14693 3.88246,-0.35792 5.813,-0.62728 1.70378,-0.24676 3.39958,-0.53989 5.08765,-0.87767 1.88799,-0.3898 3.76408,-0.83582 5.62422,-1.34285 1.8503,-0.50668 3.68342,-1.07608 5.4963,-1.70395 1.36712,-0.47031 2.72227,-0.97917 4.06254,-1.52104 1.78772,-0.72227 3.55233,-1.50155 5.28875,-2.33932 1.70865,-0.82595 3.3875,-1.71125 5.04276,-2.63906 1.50019,-0.86044 2.98117,-1.75252 4.43316,-2.69224 1.59065,-1.03495 3.15104,-2.11673 4.67165,-3.25244 1.17558,-0.87547 2.33068,-1.78081 3.45829,-2.71729 1.48597,-1.22859 2.93151,-2.50601 4.33133,-3.83168 1.37015,-1.29325 2.69023,-2.63769 3.97873,-4.01185 1.17939,-1.28397 2.3288,-2.59408 3.43798,-3.93929 1.2112,-1.4802 2.37852,-2.99642 3.49255,-4.55136 1.09188,-1.52545 2.1386,-3.08398 3.12605,-4.67931 0.81039,-1.28467 1.57299,-2.60029 2.30916,-3.92865 0.91863,-1.65991 1.77815,-3.35189 2.58934,-5.06657 0.74541,-1.59402 1.43966,-3.21025 2.10024,-4.84111 0.69558,-1.77215 1.34311,-3.56282 1.93094,-5.37381 0.58409,-1.81228 1.11102,-3.64304 1.57549,-5.48982 0.35587,-1.40104 0.67347,-2.81308 0.95618,-4.23067 0.37759,-1.89128 0.69304,-3.79491 0.94404,-5.70693 0.2508,-1.92974 0.44172,-3.86696 0.5666,-5.80881 0.10457,-1.71368 0.16261,-3.42891 0.17552,-5.14572 0.0166,-1.48907 -0.0255,-2.96672 -0.0901,-4.43221 -0.19985,-4.28791 -0.72106,-8.56037 -1.55099,-12.77182 -1.53066,-7.76032 -4.15432,-15.39023 -7.75154,-22.47192 -2.78185,-5.49055 -6.19682,-10.75706 -10.10642,-15.55443 -1.13308,-1.39222 -2.27285,-2.70851 -3.49127,-4.03285 -0.34982,-0.37288 -0.72219,-0.77913 -1.08789,-1.15756 -1.24094,-1.30053 -2.5347,-2.57019 -3.83325,-3.77084 -0.80617,-0.74683 -1.71498,-1.55619 -2.55428,-2.26878 -5.21616,-4.46023 -10.96684,-8.29293 -17.08449,-11.40301 -7.05024,-3.58338 -14.67393,-6.2263 -22.46546,-7.76735 -4.32321,-0.85536 -8.79502,-1.3976 -13.23124,-1.58039 -2.17406,-0.10707 -4.42211,-0.0791 -6.62731,-0.0286 z" />
      <path
         id="path2517"
         style="opacity:1;fill:none;stroke:#000000;stroke-width:13.1431;stroke-miterlimit:4;stroke-dasharray:none;stroke-opacity:1"
         d="m 538.23683,487.7168 c -1.07048,0.0497 -2.14043,0.10712 -3.20708,0.21287 -1.14408,0.11123 -2.28496,0.25739 -3.41929,0.44427 -0.88079,0.14168 -1.75819,0.30909 -2.62975,0.49939 -1.11008,0.2392 -2.21139,0.51794 -3.30352,0.82841 -1.11345,0.32063 -2.21601,0.67757 -3.30729,1.06658 -0.96022,0.34965 -1.91122,0.7226 -2.85105,1.12396 -1.06065,0.45564 -2.1066,0.94527 -3.13551,1.46888 -0.99636,0.50808 -1.97775,1.04632 -2.93814,1.61977 -0.77255,0.45281 -1.52839,0.93487 -2.275,1.42904 -0.96067,0.64031 -1.90056,1.31139 -2.81774,2.01242 -0.81332,0.62533 -1.60771,1.27392 -2.38609,1.94217 -0.87856,0.76236 -1.73173,1.55349 -2.56084,2.36943 -0.80653,0.80077 -1.58937,1.62556 -2.34276,2.47669 -0.58262,0.65649 -1.14948,1.32804 -1.69656,2.01444 -0.71547,0.89326 -1.40074,1.81057 -2.0555,2.74912 -0.65011,0.93356 -1.26726,1.88932 -1.85974,2.86029 -0.53519,0.8971 -1.04996,1.80572 -1.53662,2.73012 -0.52513,1.00707 -1.02147,2.02921 -1.48103,3.06797 -0.45148,1.01889 -0.87421,2.051 -1.25556,3.09831 -0.32102,0.85461 -0.60804,1.72232 -0.88106,2.5933 -0.34027,1.09815 -0.64255,2.20771 -0.91228,3.32515 -0.23705,1.00315 -0.44586,2.01217 -0.6287,3.02659 -0.19765,1.13769 -0.36095,2.28111 -0.48735,3.42903 -0.12761,1.16684 -0.21203,2.33817 -0.2616,3.51096 -0.0472,1.14293 -0.0558,2.28758 -0.0257,3.4312 0.0204,0.88064 0.067,1.76137 0.13326,2.6397 0.0878,1.15506 0.21524,2.30696 0.37871,3.45362 0.16568,1.14343 0.3679,2.28125 0.60603,3.41172 0.21681,1.00665 0.46106,2.00662 0.73137,3.00022 0.30906,1.11544 0.65452,2.22059 1.03376,3.31423 0.37207,1.06557 0.77708,2.11983 1.21957,3.15828 0.34508,0.82178 0.71544,1.6336 1.10505,2.43517 0.49518,1.02261 1.02649,2.02739 1.58643,3.01589 0.51709,0.9073 1.06408,1.79642 1.62903,2.67464 0.62515,0.94894 1.27385,1.88215 1.95477,2.79206 0.68571,0.91158 1.39833,1.80306 2.14206,2.66817 0.73858,0.86411 1.50761,1.70247 2.30404,2.51365 0.62473,0.64768 1.27679,1.26929 1.93605,1.88152 0.8459,0.7787 1.7177,1.52884 2.61127,2.25213 0.80418,0.64466 1.62549,1.26673 2.46308,1.86729 0.93861,0.66385 1.89609,1.30082 2.87438,1.90494 0.98307,0.60616 1.98677,1.1788 3.00799,1.71836 0.76332,0.40452 1.53818,0.78891 2.32139,1.15346 1.04214,0.48538 2.10007,0.93687 3.17139,1.35371 1.07247,0.41458 2.15863,0.7924 3.25444,1.14025 0.98809,0.30521 1.98302,0.58602 2.98615,0.83761 1.11262,0.27503 2.23363,0.51618 3.36179,0.71909 1.12771,0.20293 2.26232,0.36841 3.40126,0.49484 1.11372,0.12801 2.23231,0.21702 3.35237,0.26608 0.95845,0.052 1.91924,0.0656 2.87891,0.0586 1.14404,-0.01 2.28753,-0.0576 3.42851,-0.13963 1.1639,-0.088 2.32458,-0.2143 3.48046,-0.37559 1.02011,-0.14774 2.03546,-0.32325 3.04616,-0.52549 1.13043,-0.23339 2.2537,-0.50045 3.36744,-0.80401 1.10783,-0.30338 2.2054,-0.6443 3.29084,-1.02022 0.81855,-0.28159 1.62992,-0.58626 2.43238,-0.91072 1.07038,-0.43244 2.12693,-0.89902 3.16659,-1.40062 1.02301,-0.49453 2.02821,-1.02459 3.01927,-1.58011 0.89822,-0.51517 1.78494,-1.0493 2.6543,-1.61193 0.95238,-0.61967 1.88664,-1.26738 2.79709,-1.94737 0.70386,-0.52418 1.39547,-1.06624 2.0706,-1.62694 0.88971,-0.7356 1.75521,-1.50044 2.59334,-2.29414 0.82036,-0.77434 1.61074,-1.5793 2.38221,-2.40207 0.70615,-0.76874 1.39434,-1.55316 2.05843,-2.35859 0.7252,-0.88625 1.42412,-1.79408 2.09114,-2.72508 0.65375,-0.91334 1.28044,-1.84649 1.87167,-2.80166 0.48521,-0.76919 0.94181,-1.5569 1.38258,-2.35224 0.55001,-0.99384 1.06463,-2.0069 1.55034,-3.03354 0.4463,-0.95441 0.86197,-1.9221 1.25749,-2.89856 0.41648,-1.06105 0.80416,-2.13318 1.15612,-3.21749 0.34971,-1.08508 0.66522,-2.18122 0.9433,-3.28696 0.21309,-0.83886 0.40324,-1.68429 0.5725,-2.53306 0.22608,-1.13238 0.41496,-2.27215 0.56523,-3.41694 0.15017,-1.15542 0.26449,-2.3153 0.33925,-3.47796 0.0626,-1.02604 0.0974,-2.053 0.10509,-3.08093 0.01,-0.89155 -0.0153,-1.77628 -0.0539,-2.65372 -0.11966,-2.56734 -0.43173,-5.12541 -0.92864,-7.64696 -0.91646,-4.64639 -2.48734,-9.2147 -4.64113,-13.45478 -1.6656,-3.28739 -3.71026,-6.44065 -6.05109,-9.31301 -0.67842,-0.83357 -1.36082,-1.62169 -2.09036,-2.4146 -0.20944,-0.22327 -0.43238,-0.4665 -0.65134,-0.69309 -0.743,-0.77867 -1.51762,-1.53885 -2.29511,-2.25774 -0.4827,-0.44714 -1.02684,-0.93175 -1.52935,-1.3584 -3.12311,-2.67051 -6.56626,-4.96527 -10.22911,-6.8274 -4.22124,-2.1455 -8.78581,-3.72792 -13.45091,-4.65061 -2.58846,-0.51212 -5.2659,-0.83679 -7.92201,-0.94621 -1.3017,-0.0642 -2.64769,-0.0472 -3.96804,-0.0171 z" />
      <path
         id="path2519"
         style="display:inline;opacity:1;fill:none;stroke:#ffffff;stroke-width:6.36694;stroke-miterlimit:4;stroke-dasharray:none;stroke-opacity:1"
         d="m 532.60184,322.37786 c -4.47863,0.20769 -8.95501,0.44815 -13.41761,0.89058 -4.78654,0.46539 -9.55969,1.07684 -14.30543,1.85866 -3.68499,0.59282 -7.35579,1.29321 -11.00219,2.08937 -4.64426,1.00077 -9.25193,2.16688 -13.82109,3.46585 -4.65828,1.34144 -9.27118,2.83474 -13.83688,4.46227 -4.01728,1.46289 -7.99602,3.02319 -11.92797,4.70232 -4.43753,1.90628 -8.8135,3.95477 -13.11815,6.14546 -4.16859,2.12563 -8.27439,4.37753 -12.29246,6.7767 -3.23218,1.89433 -6.39438,3.91122 -9.51802,5.97869 -4.01917,2.67888 -7.95151,5.48651 -11.7887,8.41946 -3.40274,2.61621 -6.72617,5.32981 -9.98284,8.12558 -3.67561,3.18948 -7.24506,6.49938 -10.71382,9.91303 -3.37434,3.35016 -6.64953,6.80097 -9.80149,10.36191 -2.43755,2.74651 -4.8092,5.55621 -7.09801,8.42791 -2.99338,3.73714 -5.86037,7.57491 -8.59959,11.50158 -2.71993,3.9057 -5.3019,7.90443 -7.78072,11.96668 -2.23912,3.75331 -4.39278,7.55468 -6.42885,11.42215 -2.19695,4.21328 -4.27358,8.48961 -6.1963,12.83559 -1.88877,4.26276 -3.65741,8.58082 -5.25286,12.96258 -1.34313,3.57547 -2.54387,7.20567 -3.68615,10.84958 -1.42358,4.5944 -2.68824,9.23655 -3.8167,13.91164 -0.99181,4.1969 -1.86546,8.4184 -2.6304,12.66248 -0.82691,4.75978 -1.51006,9.54364 -2.03895,14.3461 -0.53392,4.88177 -0.887,9.78232 -1.09435,14.68896 -0.19757,4.78177 -0.23343,9.57069 -0.10816,14.35533 0.0854,3.68433 0.28033,7.36905 0.5576,11.04378 0.36733,4.83246 0.90043,9.65174 1.58437,14.44907 0.69314,4.78377 1.53923,9.5442 2.53544,14.27375 0.90714,4.21154 1.92892,8.39517 3.05991,12.55217 1.29302,4.6667 2.73836,9.29031 4.32495,13.86589 1.55669,4.45807 3.25112,8.86876 5.10232,13.21341 1.44378,3.438 2.99331,6.83462 4.62325,10.18816 2.07177,4.27831 4.29462,8.48209 6.63718,12.61762 2.16347,3.79593 4.45193,7.51585 6.81555,11.19005 2.61539,3.9701 5.3294,7.87442 8.1782,11.68123 2.86882,3.81388 5.85028,7.54358 8.96187,11.1629 3.08996,3.61528 6.30743,7.12268 9.6395,10.51653 2.6137,2.70969 5.34176,5.31033 8.09988,7.87179 3.53903,3.25787 7.18648,6.39625 10.92493,9.42237 3.36445,2.69705 6.80052,5.29966 10.30488,7.81219 3.92689,2.77734 7.93278,5.44234 12.02564,7.96973 4.11286,2.53603 8.31211,4.93187 12.58468,7.18918 3.19353,1.69248 6.43533,3.30063 9.71198,4.8258 4.36022,2.03071 8.78627,3.91959 13.26836,5.66359 4.48697,1.73456 9.03125,3.31519 13.61576,4.77058 4.13394,1.27684 8.29646,2.45169 12.49324,3.50431 4.65499,1.15064 9.34499,2.15961 14.06487,3.00848 4.71814,0.84901 9.46499,1.54127 14.23005,2.07025 4.65952,0.53562 9.33941,0.90803 14.02547,1.11324 4.00986,0.21723 8.02957,0.27384 12.04454,0.24513 4.78642,-0.0348 9.5705,-0.24069 14.34406,-0.58416 4.86944,-0.36802 9.72538,-0.89657 14.56134,-1.57132 4.2679,-0.61814 8.51575,-1.35246 12.74435,-2.19853 4.72933,-0.97644 9.42889,-2.09372 14.08844,-3.3638 4.63494,-1.26917 9.22681,-2.69552 13.76806,-4.26834 3.42454,-1.17807 6.81916,-2.45278 10.17648,-3.81013 4.47817,-1.80922 8.89842,-3.76135 13.24811,-5.85989 4.28009,-2.06898 8.48553,-4.28664 12.63189,-6.6108 3.75798,-2.15532 7.46771,-4.38999 11.1049,-6.74395 3.9845,-2.59248 7.89323,-5.30227 11.70232,-8.14719 2.94481,-2.19301 5.83827,-4.46086 8.66292,-6.80668 3.72223,-3.07762 7.34328,-6.27751 10.84978,-9.59826 3.43216,-3.23947 6.73888,-6.60731 9.96652,-10.04951 2.95435,-3.21627 5.83357,-6.49808 8.61202,-9.86776 3.034,-3.70789 5.95811,-7.5059 8.74869,-11.40103 2.73513,-3.82115 5.35711,-7.72517 7.83068,-11.72141 2.02995,-3.21806 3.94026,-6.51366 5.78429,-9.84113 2.30115,-4.15806 4.45421,-8.39634 6.48626,-12.6916 1.8672,-3.99291 3.60626,-8.0415 5.26095,-12.12675 1.74246,-4.43917 3.36448,-8.92472 4.83694,-13.46119 1.46316,-4.53971 2.7831,-9.12566 3.94657,-13.75176 0.89146,-3.50957 1.68704,-7.04669 2.39522,-10.5977 0.94584,-4.73758 1.73601,-9.50607 2.36477,-14.29562 0.62828,-4.83394 1.10647,-9.68658 1.41934,-14.55083 0.26189,-4.29269 0.40733,-8.58929 0.43962,-12.88982 0.0417,-3.73006 -0.0635,-7.43154 -0.22561,-11.10251 -0.50062,-10.74108 -1.80618,-21.44344 -3.88517,-31.99293 -3.8342,-19.43925 -10.40637,-38.5519 -19.41726,-56.29128 -6.96846,-13.75356 -15.5228,-26.94601 -25.3162,-38.96323 -2.83835,-3.48747 -5.69342,-6.78473 -8.74549,-10.10216 -0.87631,-0.93403 -1.80907,-1.95163 -2.72517,-2.89961 -3.10846,-3.25776 -6.34929,-6.43823 -9.60211,-9.44579 -2.0194,-1.87078 -4.29594,-3.89821 -6.39835,-5.68324 -13.06632,-11.17271 -27.47156,-20.77342 -42.79596,-28.56406 -17.66062,-8.97622 -36.75767,-15.59662 -56.27511,-19.45691 -10.82948,-2.14264 -22.03122,-3.50091 -33.14374,-3.9588 -5.44598,-0.26821 -11.07719,-0.19837 -16.60119,-0.0721 z" />
      <animateTransform
         from="0 540 540"
         to="360 540 540"
         dur="5s"
         repeatCount="indefinite"
         attributeName="transform"
         type="rotate" />
    </g>
    <g
       id="g2686"
       transform="matrix(1.3170732,0,0,1.765869,0,264.16852)">
      <g
         inkscape:label="Layer 1"
         id="layer1-3">
        <path
           id="rect846"
           style="opacity:0.367184;fill:#0066ff;fill-opacity:0.999977;stroke-width:4.7;stroke-dasharray:4.7, 9.4"
           d="m 0,231 c 0,0 111.71642,-153.868451 410,0 298.28358,153.86845 410,0 410,0 V 462 H 0 Z"
           sodipodi:nodetypes="czcccc">
          <animate
             dur="5s"
             repeatCount="indefinite"
             attributeName="d"
             fill="freeze"
             calcMode="spline"
             keySplines="0.4 0 0.2 1; 0.4 0 0.2 1"
             values="m 0,231 c 0,0 111.71642,-153.868451 410,0 298.28358,153.86845 410,0 410,0 V 462 H 0 Z;m 0,231 c 0,0 129.41894,148.13122 410,0 280.58106,-148.131218 410,0 410,0 V 462 H 0 Z;m 0,231 c 0,0 111.71642,-153.868451 410,0 298.28358,153.86845 410,0 410,0 V 462 H 0 Z;" />
        </path>
      </g>
      <g
         inkscape:label="Layer 1"
         id="g824">
        <path
           id="path822"
           style="opacity:0.250564;fill:#0000ff;fill-opacity:0.999977;stroke-width:4.7;stroke-dasharray:4.7, 9.4"
           d="M 820,231 C 820,231 708.28358,77.131549 410,231 111.71642,384.86845 0,231 0,231 v 231 h 820 z"
           sodipodi:nodetypes="czcccc">
          <animate
             dur="5s"
             repeatCount="indefinite"
             attributeName="d"
             fill="freeze"
             calcMode="spline"
             keySplines="0.4 0 0.2 1; 0.4 0 0.2 1"
             values="m 0,231 c 0,0 129.41894,148.13122 410,0 280.58106,-148.131218 410,0 410,0 V 462 H 0 Z;m 0,231 c 0,0 111.71642,-153.868451 410,0 298.28358,153.86845 410,0 410,0 V 462 H 0 Z;m 0,231 c 0,0 129.41894,148.13122 410,0 280.58106,-148.131218 410,0 410,0 V 462 H 0 Z;" />
        </path>
        <path
           id="path824"
           style="opacity:0.250564;fill:#0000ff;fill-opacity:0.999977;stroke-width:4.7;stroke-dasharray:4.7, 9.4"
           d="m 817.56629,230.77591 c 0,0 -15.01483,38.89699 -79.8738,41.68824 C 583.78483,279.08768 580.06904,157.17699 400.82794,156.2038 291.90465,155.6124 221.64371,271.94665 118.73912,277.1863 58.316813,280.26285 0,231 0,231 v 231 h 820 z"
           sodipodi:nodetypes="cssscccc">
          <animate
             dur="5s"
             repeatCount="indefinite"
             attributeName="d"
             fill="freeze"
             calcMode="spline"
             keySplines="0.4 0 0.2 1; 0.4 0 0.2 1"
             values="m 817.56629,230.77591 c 0,0 -15.01483,38.89699 -79.8738,41.68824 C 583.78483,279.08768 580.06904,157.17699 400.82794,156.2038 291.90465,155.6124 221.64371,271.94665 118.73912,277.1863 58.316813,280.26285 0,231 0,231 v 231 h 820 z;m 817.56629,230.77591 c 0,0 -40.82906,-68.69277 -105.68803,-65.90152 C 557.9706,171.49792 580.06904,307.17699 400.82794,306.2038 291.90465,305.6124 195.82948,164.35689 92.924893,169.59654 32.502586,172.67309 0,231 0,231 v 231 h 820 z;m 817.56629,230.77591 c 0,0 -15.01483,38.89699 -79.8738,41.68824 C 583.78483,279.08768 580.06904,157.17699 400.82794,156.2038 291.90465,155.6124 221.64371,271.94665 118.73912,277.1863 58.316813,280.26285 0,231 0,231 v 231 h 820 z;" />
        </path>
      </g>
    </g>
  </g>
</svg>
