<?xml version="1.0" encoding="UTF-8" standalone="no"?>
<!-- Created with Inkscape (http://www.inkscape.org/) -->

<svg
   width="1080"
   height="1080"
   viewBox="0 0 1080 1080"
   version="1.1"
   id="svg5"
   inkscape:version="1.1.2 (0a00cf5339, 2022-02-04)"
   sodipodi:docname="Wheel2-dark.svg"
   xmlns:inkscape="http://www.inkscape.org/namespaces/inkscape"
   xmlns:sodipodi="http://sodipodi.sourceforge.net/DTD/sodipodi-0.dtd"
   xmlns="http://www.w3.org/2000/svg"
   xmlns:svg="http://www.w3.org/2000/svg">
  <sodipodi:namedview
     id="namedview7"
     pagecolor="#a396ff"
     bordercolor="#cccccc"
     borderopacity="1"
     inkscape:pageshadow="0"
     inkscape:pageopacity="1"
     inkscape:pagecheckerboard="0"
     inkscape:document-units="px"
     showgrid="false"
     inkscape:zoom="0.50648148"
     inkscape:cx="1315.9415"
     inkscape:cy="413.63803"
     inkscape:window-width="1600"
     inkscape:window-height="831"
     inkscape:window-x="0"
     inkscape:window-y="32"
     inkscape:window-maximized="1"
     inkscape:current-layer="layer1" />
  <defs
     id="defs2">
    <inkscape:path-effect
       effect="copy_rotate"
       starting_point="0,0"
       origin="37.281322,511.32262"
       id="path-effect2103"
       is_visible="true"
       lpeversion="1"
       method="normal"
       num_copies="8"
       starting_angle="0"
       rotation_angle="45"
       gap="-0.01"
       copies_to_360="true"
       mirror_copies="false"
       split_items="false" />
    <inkscape:path-effect
       effect="powerstroke"
       id="path-effect861"
       is_visible="true"
       lpeversion="1"
       offset_points="0,1"
       not_jump="false"
       sort_points="true"
       interpolator_type="CubicBezierJohan"
       interpolator_beta="0.2"
       start_linecap_type="zerowidth"
       linejoin_type="extrp_arc"
       miter_limit="4"
       scale_width="1"
       end_linecap_type="zerowidth" />
    <inkscape:path-effect
       effect="bspline"
       id="path-effect859"
       is_visible="true"
       lpeversion="1"
       weight="33.333333"
       steps="2"
       helper_size="0"
       apply_no_weight="true"
       apply_with_weight="true"
       only_selected="false" />
    <style
       type="text/css"
       id="style917">
    .fil0 {fill:black}
  </style>
  </defs>
  <g
     inkscape:label="Layer 1"
     inkscape:groupmode="layer"
     id="layer1">
    <path
       class="fil0"
       d="m 564.42917,319.02367 v 17.67811 c 43.84549,4.32301 83.86692,20.07117 116.41099,43.84784 l 14.53007,-13.20068 c 5.52337,-10.6532 14.61523,-22.30995 26.42631,-33.19474 27.78561,-25.47498 60.41454,-37.13174 72.82051,-25.93814 12.40566,11.19355 -0.0853,40.91436 -27.87076,66.38939 -12.23587,11.27077 -25.49136,19.76242 -37.47231,24.85744 l -13.7654,12.50592 c 26.17115,29.64367 43.50538,66.00343 48.26377,105.75986 h 20.47823 c 12.23587,-4.01424 27.70064,-6.40734 44.52496,-6.48453 39.51177,-0.1542 71.54589,12.58309 71.63104,28.40848 0.0849,15.90259 -31.86432,28.87168 -71.37609,29.02606 -17.41909,0.0775 -33.39385,-2.3931 -45.79959,-6.48454 h -19.45855 c -4.75839,39.83362 -22.09262,76.19339 -48.26377,105.75986 l 14.53006,13.2007 c 11.72621,5.01782 24.55692,13.27787 36.53784,24.00828 28.04057,25.2434 40.87129,54.88701 28.55026,66.15779 -12.3208,11.27074 -45.03466,-0.0777 -73.07547,-25.32064 -12.40569,-11.11633 -21.75254,-23.15905 -27.3608,-34.04384 l -13.76521,-12.50588 c -32.62917,23.77665 -72.6506,39.5248 -116.41095,43.84781 v 18.60456 c 4.4184,11.11634 7.05267,25.16619 7.13757,40.45123 0.17022,35.89656 -13.85033,64.99982 -31.26944,65.07703 -17.50425,0.0774 -31.77938,-28.94886 -31.94942,-64.84549 -0.0851,-15.8254 2.63427,-30.33844 7.13777,-41.60914 v -17.67819 c -43.84544,-4.32301 -83.8669,-20.07116 -116.41097,-43.84781 l -14.53008,13.20066 c -5.52333,10.65317 -14.61522,22.30992 -26.4263,33.19472 -27.7856,25.47498 -60.41454,37.13175 -72.8205,25.93814 -12.40567,-11.19354 0.0853,-40.91439 27.87076,-66.38937 12.23585,-11.27078 25.49136,-19.76243 37.47231,-24.85744 l 13.7654,-12.50593 C 338.32027,638.38753 320.98604,602.02776 316.22763,562.27134 h -20.47819 c -12.23589,4.01424 -27.70069,6.40734 -44.52498,6.48453 -39.51178,0.15419 -71.5459,-12.5831 -71.63103,-28.4085 -0.0851,-15.90258 31.86431,-28.87166 71.37607,-29.02604 17.41909,-0.0774 33.39384,2.3931 45.79975,6.48453 h 19.45838 c 4.75841,-39.83362 22.09264,-76.19338 48.26378,-105.75982 L 349.96135,398.8453 c -11.7262,-5.01777 -24.55671,-13.27789 -36.53787,-24.00827 -28.04054,-25.24341 -40.87126,-54.88701 -28.55028,-66.15781 12.32087,-11.27073 45.03495,0.0777 73.07552,25.32064 12.4057,11.11634 21.7525,23.15906 27.3608,34.04383 l 13.7654,12.50593 c 32.62897,-23.77667 72.65043,-39.52483 116.41075,-43.84784 v -18.60454 c -4.41838,-11.11636 -7.05265,-25.16621 -7.13761,-40.45123 -0.17017,-35.89658 13.85038,-64.99984 31.2695,-65.07705 17.50422,-0.0774 31.77937,28.94888 31.94942,64.84549 0.0852,15.82539 -2.63427,30.33844 -7.13781,41.60922 z m -24.55665,27.71368 c 117.60063,0 212.93855,86.615 212.93855,193.45562 0,106.84066 -95.33792,193.45567 -212.93855,193.45567 -117.60041,0 -212.93853,-86.61501 -212.93853,-193.45567 0,-106.84062 95.33812,-193.45562 212.93853,-193.45562 z m 0,7.2565 c 113.18203,0 204.95119,83.37274 204.95119,186.19912 0,102.82643 -91.76916,186.19917 -204.95119,186.19917 -113.18205,0 -204.9512,-83.37274 -204.9512,-186.19917 0,-102.82638 91.76915,-186.19912 204.9512,-186.19912 z m 24.55665,41.91799 v 69.70886 c 5.6932,1.54393 11.13137,3.55104 16.22968,6.09857 l 54.21169,-49.2517 c -20.39306,-13.58665 -44.35488,-22.92752 -70.44137,-26.55573 z m 105.1098,58.05214 -54.21171,49.25162 c 2.80391,4.63184 5.01319,9.57248 6.71281,14.74465 h 76.72914 c -3.99359,-23.69943 -14.27511,-45.46901 -29.23024,-63.99627 z m 29.23024,108.53892 h -76.72914 c -1.69962,5.17221 -3.9089,10.11282 -6.71279,14.74466 l 54.21169,49.25166 c 14.95513,-18.52727 25.23668,-40.29682 29.23024,-63.99632 z m -63.89865,95.49268 -54.21171,-49.25165 c -5.09831,2.54748 -10.53648,4.55466 -16.22968,6.09858 v 69.70884 c 26.08649,-3.62825 50.04831,-12.96907 70.44139,-26.55577 z m -119.46979,26.55577 v -69.70884 c -5.69322,-1.54392 -11.13135,-3.5511 -16.22945,-6.09858 l -54.21192,49.25165 c 20.39326,13.5867 44.35513,22.92752 70.44137,26.55577 z m -105.10979,-58.05213 54.21189,-49.25166 c -2.80411,-4.63184 -5.01337,-9.57245 -6.71275,-14.74466 h -76.72918 c 3.99364,23.6995 14.27516,45.46905 29.23004,63.99632 z M 381.06094,517.96025 h 76.72918 c 1.69938,-5.17217 3.90864,-10.11281 6.71275,-14.74465 l -54.21189,-49.25162 c -14.95488,18.52726 -25.23642,40.29684 -29.23004,63.99627 z m 63.89846,-95.49268 54.21192,49.2517 c 5.0981,-2.54753 10.53624,-4.55464 16.22945,-6.09857 v -69.70886 c -26.08624,3.62821 -50.04811,12.96908 -70.44137,26.55573 z m 94.91312,58.66974 c 35.943,0 65.08808,26.47856 65.08808,59.13285 0,32.65433 -29.14508,59.13292 -65.08808,59.13292 -35.943,0 -65.08805,-26.47859 -65.08805,-59.13292 0,-32.65429 29.14505,-59.13285 65.08805,-59.13285 z m 0,8.87764 c 30.58973,0 55.40136,22.54153 55.40136,50.33242 0,27.79092 -24.81163,50.33243 -55.40136,50.33243 -30.58968,0 -55.40141,-22.54151 -55.40141,-50.33243 0,-27.79089 24.81173,-50.33242 55.40141,-50.33242 z"
       id="path921"
       style="clip-rule:evenodd;fill:#ffffff;fill-rule:evenodd;stroke-width:0.080991;image-rendering:optimizeQuality;shape-rendering:geometricPrecision;text-rendering:geometricPrecision">
      <animateTransform
         repeatCount="indefinite"
         dur="10s"
         type="rotate"
         from="0"
         to="360"
         attributeName="transform"
         Cx="408"
         Cy="225" />
    </path>
    <g
       id="g2686"
       transform="matrix(1.3170732,0,0,1.765869,0,264.16852)">
      <g
         inkscape:label="Layer 1"
         id="layer1-3">
        <path
           id="rect846"
           style="opacity:0.367184;fill:#0066ff;fill-opacity:0.999977;stroke-width:4.7;stroke-dasharray:4.7, 9.4"
           d="m 0,231 c 0,0 111.71642,-153.868451 410,0 298.28358,153.86845 410,0 410,0 V 462 H 0 Z"
           sodipodi:nodetypes="czcccc">
          <animate
             dur="5s"
             repeatCount="indefinite"
             attributeName="d"
             fill="freeze"
             calcMode="spline"
             keySplines="0.4 0 0.2 1; 0.4 0 0.2 1"
             values="m 0,231 c 0,0 111.71642,-153.868451 410,0 298.28358,153.86845 410,0 410,0 V 462 H 0 Z;m 0,231 c 0,0 129.41894,148.13122 410,0 280.58106,-148.131218 410,0 410,0 V 462 H 0 Z;m 0,231 c 0,0 111.71642,-153.868451 410,0 298.28358,153.86845 410,0 410,0 V 462 H 0 Z;" />
        </path>
      </g>
      <g
         inkscape:label="Layer 1"
         id="g824">
        <path
           id="path822"
           style="opacity:0.250564;fill:#0000ff;fill-opacity:0.999977;stroke-width:4.7;stroke-dasharray:4.7, 9.4"
           d="M 820,231 C 820,231 708.28358,77.131549 410,231 111.71642,384.86845 0,231 0,231 v 231 h 820 z"
           sodipodi:nodetypes="czcccc">
          <animate
             dur="5s"
             repeatCount="indefinite"
             attributeName="d"
             fill="freeze"
             calcMode="spline"
             keySplines="0.4 0 0.2 1; 0.4 0 0.2 1"
             values="m 0,231 c 0,0 129.41894,148.13122 410,0 280.58106,-148.131218 410,0 410,0 V 462 H 0 Z;m 0,231 c 0,0 111.71642,-153.868451 410,0 298.28358,153.86845 410,0 410,0 V 462 H 0 Z;m 0,231 c 0,0 129.41894,148.13122 410,0 280.58106,-148.131218 410,0 410,0 V 462 H 0 Z;" />
        </path>
        <path
           id="path824"
           style="opacity:0.250564;fill:#0000ff;fill-opacity:0.999977;stroke-width:4.7;stroke-dasharray:4.7, 9.4"
           d="m 817.56629,230.77591 c 0,0 -15.01483,38.89699 -79.8738,41.68824 C 583.78483,279.08768 580.06904,157.17699 400.82794,156.2038 291.90465,155.6124 221.64371,271.94665 118.73912,277.1863 58.316813,280.26285 0,231 0,231 v 231 h 820 z"
           sodipodi:nodetypes="cssscccc">
          <animate
             dur="5s"
             repeatCount="indefinite"
             attributeName="d"
             fill="freeze"
             calcMode="spline"
             keySplines="0.4 0 0.2 1; 0.4 0 0.2 1"
             values="m 817.56629,230.77591 c 0,0 -15.01483,38.89699 -79.8738,41.68824 C 583.78483,279.08768 580.06904,157.17699 400.82794,156.2038 291.90465,155.6124 221.64371,271.94665 118.73912,277.1863 58.316813,280.26285 0,231 0,231 v 231 h 820 z;m 817.56629,230.77591 c 0,0 -40.82906,-68.69277 -105.68803,-65.90152 C 557.9706,171.49792 580.06904,307.17699 400.82794,306.2038 291.90465,305.6124 195.82948,164.35689 92.924893,169.59654 32.502586,172.67309 0,231 0,231 v 231 h 820 z;m 817.56629,230.77591 c 0,0 -15.01483,38.89699 -79.8738,41.68824 C 583.78483,279.08768 580.06904,157.17699 400.82794,156.2038 291.90465,155.6124 221.64371,271.94665 118.73912,277.1863 58.316813,280.26285 0,231 0,231 v 231 h 820 z;" />
        </path>
      </g>
    </g>
  </g>
</svg>
